<svg width="181" height="46" viewBox="0 0 181 46" fill="none" xmlns="http://www.w3.org/2000/svg">
<path d="M56.628 35V9.51199H62.82V35H56.628Z" fill="black"/>
<path d="M79.5369 35V25.208C79.5369 24.704 79.4889 24.224 79.3929 23.768C79.3209 23.312 79.1889 22.916 78.9969 22.58C78.8049 22.22 78.5289 21.944 78.1689 21.752C77.8329 21.536 77.4009 21.428 76.8729 21.428C76.3449 21.428 75.8769 21.536 75.4689 21.752C75.0849 21.944 74.7609 22.22 74.4969 22.58C74.2329 22.94 74.0289 23.36 73.8849 23.84C73.7649 24.296 73.7049 24.776 73.7049 25.28V35H67.7649V17.072H73.4889V19.556H73.5609C73.7769 19.172 74.0529 18.8 74.3889 18.44C74.7489 18.056 75.1569 17.732 75.6129 17.468C76.0929 17.204 76.6089 16.988 77.1609 16.82C77.7129 16.652 78.3009 16.568 78.9249 16.568C80.1249 16.568 81.1449 16.784 81.9849 17.216C82.8249 17.648 83.4969 18.212 84.0009 18.908C84.5289 19.58 84.9009 20.36 85.1169 21.248C85.3569 22.136 85.4769 23.024 85.4769 23.912V35H79.5369Z" fill="black"/>
<path d="M101.037 35H94.6645L87.6085 17.072H94.1245L97.9045 28.7H98.0125L101.793 17.072H108.093L101.037 35Z" fill="black"/>
<path d="M122.722 23.984C122.722 23.048 122.422 22.244 121.822 21.572C121.246 20.9 120.37 20.564 119.194 20.564C118.618 20.564 118.09 20.66 117.61 20.852C117.13 21.02 116.71 21.26 116.35 21.572C115.99 21.884 115.702 22.256 115.486 22.688C115.27 23.096 115.15 23.528 115.126 23.984H122.722ZM128.158 26.252C128.158 26.492 128.158 26.732 128.158 26.972C128.158 27.212 128.146 27.44 128.122 27.656H115.126C115.174 28.16 115.318 28.616 115.558 29.024C115.822 29.432 116.146 29.792 116.53 30.104C116.938 30.392 117.382 30.62 117.862 30.788C118.366 30.956 118.882 31.04 119.41 31.04C120.346 31.04 121.138 30.872 121.786 30.536C122.434 30.176 122.962 29.72 123.37 29.168L127.474 31.76C126.634 32.984 125.518 33.932 124.126 34.604C122.758 35.252 121.162 35.576 119.338 35.576C117.994 35.576 116.722 35.372 115.522 34.964C114.322 34.532 113.266 33.92 112.354 33.128C111.466 32.312 110.758 31.316 110.23 30.14C109.726 28.964 109.474 27.62 109.474 26.108C109.474 24.644 109.726 23.324 110.23 22.148C110.734 20.948 111.418 19.94 112.282 19.124C113.146 18.284 114.166 17.636 115.342 17.18C116.518 16.724 117.79 16.496 119.158 16.496C120.478 16.496 121.69 16.724 122.794 17.18C123.898 17.612 124.846 18.248 125.638 19.088C126.43 19.928 127.042 20.948 127.474 22.148C127.93 23.348 128.158 24.716 128.158 26.252Z" fill="black"/>
<path d="M142.368 22.364C141.888 21.908 141.324 21.524 140.676 21.212C140.028 20.9 139.344 20.744 138.624 20.744C138.072 20.744 137.556 20.852 137.076 21.068C136.62 21.284 136.392 21.656 136.392 22.184C136.392 22.688 136.644 23.048 137.148 23.264C137.676 23.48 138.516 23.72 139.668 23.984C140.34 24.128 141.012 24.332 141.684 24.596C142.38 24.86 143.004 25.208 143.556 25.64C144.108 26.072 144.552 26.6 144.888 27.224C145.224 27.848 145.392 28.592 145.392 29.456C145.392 30.584 145.164 31.544 144.708 32.336C144.252 33.104 143.652 33.728 142.908 34.208C142.188 34.688 141.372 35.036 140.46 35.252C139.548 35.468 138.636 35.576 137.724 35.576C136.26 35.576 134.82 35.348 133.404 34.892C132.012 34.412 130.848 33.716 129.912 32.804L133.224 29.312C133.752 29.888 134.4 30.368 135.168 30.752C135.936 31.136 136.752 31.328 137.616 31.328C138.096 31.328 138.564 31.22 139.02 31.004C139.5 30.764 139.74 30.356 139.74 29.78C139.74 29.228 139.452 28.82 138.876 28.556C138.3 28.292 137.4 28.016 136.176 27.728C135.552 27.584 134.928 27.392 134.304 27.152C133.68 26.912 133.116 26.588 132.612 26.18C132.132 25.772 131.736 25.268 131.424 24.668C131.112 24.068 130.956 23.348 130.956 22.508C130.956 21.428 131.184 20.516 131.64 19.772C132.096 19.004 132.684 18.38 133.404 17.9C134.124 17.42 134.916 17.072 135.78 16.856C136.668 16.616 137.544 16.496 138.408 16.496C139.752 16.496 141.06 16.712 142.332 17.144C143.628 17.552 144.72 18.176 145.608 19.016L142.368 22.364Z" fill="black"/>
<path d="M155.208 21.5V28.34C155.208 29.18 155.364 29.816 155.676 30.248C156.012 30.656 156.6 30.86 157.44 30.86C157.728 30.86 158.028 30.836 158.34 30.788C158.676 30.74 158.952 30.668 159.168 30.572L159.24 34.892C158.832 35.036 158.316 35.156 157.692 35.252C157.068 35.372 156.444 35.432 155.82 35.432C154.62 35.432 153.612 35.288 152.796 35C151.98 34.688 151.32 34.256 150.816 33.704C150.336 33.128 149.988 32.456 149.772 31.688C149.556 30.896 149.448 30.02 149.448 29.06V21.5H146.568V17.072H149.412V12.356H155.208V17.072H159.42V21.5H155.208Z" fill="black"/>
<path d="M172.311 37.7C171.951 38.636 171.543 39.464 171.087 40.184C170.655 40.928 170.127 41.552 169.503 42.056C168.903 42.584 168.183 42.98 167.343 43.244C166.527 43.508 165.555 43.64 164.427 43.64C163.875 43.64 163.299 43.604 162.699 43.532C162.123 43.46 161.619 43.364 161.187 43.244L161.835 38.276C162.123 38.372 162.435 38.444 162.771 38.492C163.131 38.564 163.455 38.6 163.743 38.6C164.655 38.6 165.315 38.384 165.723 37.952C166.131 37.544 166.479 36.956 166.767 36.188L167.343 34.712L159.855 17.072H166.407L170.403 28.592H170.511L174.075 17.072H180.339L172.311 37.7Z" fill="black"/>
<path fill-rule="evenodd" clip-rule="evenodd" d="M23.208 0C23.0708 0 22.9351 0.0282286 22.8093 0.0829299L0.601274 9.73858C0.236164 9.89732 0 10.2575 0 10.6556V45C0 45.5523 0.447715 46 1 46H22.792C22.9292 46 23.0649 45.9718 23.1907 45.9171L45.3987 36.2614C45.7638 36.1027 46 35.7425 46 35.3444V1C46 0.447715 45.5523 0 45 0H23.208ZM13.2321 16.5263H6.23205V38.5263H13.2321V16.5263ZM19 11.5263H26V33.5263H19V11.5263ZM39.2321 6.52628H32.2321V28.5263H39.2321V6.52628Z" fill="#247EF6"/>
</svg>
