<?xml version="1.0" encoding="UTF-8"?>
<svg xmlns="http://www.w3.org/2000/svg" xmlns:xlink="http://www.w3.org/1999/xlink" width="98pt" height="25pt" viewBox="0 0 98 25" version="1.1">
<g id="surface1">
<path style=" stroke:none;fill-rule:nonzero;fill:rgb(0%,0%,0%);fill-opacity:1;" d="M 30.660156 19.023438 L 30.660156 5.167969 L 34.011719 5.167969 L 34.011719 19.023438 Z M 30.660156 19.023438 "/>
<path style=" stroke:none;fill-rule:nonzero;fill:rgb(0%,0%,0%);fill-opacity:1;" d="M 43.0625 19.023438 L 43.0625 13.699219 C 43.0625 13.425781 43.039062 13.164062 42.984375 12.917969 C 42.945312 12.667969 42.875 12.453125 42.773438 12.273438 C 42.667969 12.074219 42.519531 11.925781 42.324219 11.820312 C 42.140625 11.703125 41.90625 11.644531 41.621094 11.644531 C 41.335938 11.644531 41.082031 11.703125 40.863281 11.820312 C 40.652344 11.925781 40.476562 12.074219 40.335938 12.273438 C 40.191406 12.46875 40.082031 12.695312 40.003906 12.957031 C 39.9375 13.203125 39.90625 13.464844 39.90625 13.738281 L 39.90625 19.023438 L 36.691406 19.023438 L 36.691406 9.277344 L 39.789062 9.277344 L 39.789062 10.628906 L 39.828125 10.628906 C 39.945312 10.417969 40.09375 10.21875 40.277344 10.023438 C 40.472656 9.8125 40.691406 9.636719 40.941406 9.492188 C 41.199219 9.351562 41.480469 9.234375 41.777344 9.140625 C 42.078125 9.050781 42.394531 9.003906 42.734375 9.003906 C 43.382812 9.003906 43.933594 9.121094 44.390625 9.355469 C 44.84375 9.589844 45.207031 9.898438 45.480469 10.277344 C 45.765625 10.640625 45.96875 11.066406 46.085938 11.546875 C 46.214844 12.03125 46.28125 12.511719 46.28125 12.996094 L 46.28125 19.023438 Z M 43.0625 19.023438 "/>
<path style=" stroke:none;fill-rule:nonzero;fill:rgb(0%,0%,0%);fill-opacity:1;" d="M 54.707031 19.023438 L 51.253906 19.023438 L 47.433594 9.277344 L 50.960938 9.277344 L 53.007812 15.597656 L 53.066406 15.597656 L 55.113281 9.277344 L 58.527344 9.277344 Z M 54.707031 19.023438 "/>
<path style=" stroke:none;fill-rule:nonzero;fill:rgb(0%,0%,0%);fill-opacity:1;" d="M 66.445312 13.035156 C 66.445312 12.527344 66.285156 12.089844 65.957031 11.722656 C 65.648438 11.359375 65.171875 11.175781 64.535156 11.175781 C 64.222656 11.175781 63.9375 11.226562 63.679688 11.332031 C 63.417969 11.425781 63.191406 11.554688 62.996094 11.722656 C 62.800781 11.894531 62.644531 12.09375 62.527344 12.332031 C 62.410156 12.550781 62.347656 12.785156 62.332031 13.035156 Z M 69.390625 14.265625 C 69.390625 14.398438 69.390625 14.527344 69.390625 14.660156 C 69.390625 14.789062 69.382812 14.914062 69.371094 15.03125 L 62.332031 15.03125 C 62.359375 15.304688 62.4375 15.550781 62.566406 15.773438 C 62.710938 15.996094 62.886719 16.191406 63.09375 16.359375 C 63.316406 16.515625 63.554688 16.640625 63.816406 16.734375 C 64.085938 16.824219 64.367188 16.871094 64.652344 16.871094 C 65.160156 16.871094 65.589844 16.777344 65.9375 16.59375 C 66.289062 16.398438 66.574219 16.152344 66.796875 15.851562 L 69.019531 17.261719 C 68.5625 17.925781 67.960938 18.441406 67.207031 18.804688 C 66.464844 19.160156 65.601562 19.335938 64.613281 19.335938 C 63.886719 19.335938 63.199219 19.222656 62.546875 19.003906 C 61.898438 18.765625 61.328125 18.433594 60.832031 18.003906 C 60.351562 17.5625 59.96875 17.019531 59.683594 16.378906 C 59.410156 15.742188 59.273438 15.011719 59.273438 14.1875 C 59.273438 13.394531 59.410156 12.675781 59.683594 12.035156 C 59.957031 11.386719 60.324219 10.835938 60.792969 10.394531 C 61.261719 9.9375 61.8125 9.585938 62.449219 9.335938 C 63.085938 9.089844 63.777344 8.964844 64.515625 8.964844 C 65.230469 8.964844 65.886719 9.089844 66.484375 9.335938 C 67.082031 9.570312 67.597656 9.917969 68.023438 10.375 C 68.453125 10.832031 68.785156 11.386719 69.019531 12.035156 C 69.265625 12.6875 69.390625 13.433594 69.390625 14.265625 Z M 69.390625 14.265625 "/>
<path style=" stroke:none;fill-rule:nonzero;fill:rgb(0%,0%,0%);fill-opacity:1;" d="M 77.082031 12.15625 C 76.824219 11.90625 76.519531 11.699219 76.167969 11.527344 C 75.816406 11.359375 75.445312 11.273438 75.054688 11.273438 C 74.757812 11.273438 74.476562 11.332031 74.21875 11.449219 C 73.972656 11.566406 73.847656 11.769531 73.847656 12.054688 C 73.847656 12.332031 73.984375 12.527344 74.257812 12.644531 C 74.542969 12.761719 74.996094 12.890625 75.621094 13.035156 C 75.984375 13.113281 76.347656 13.222656 76.710938 13.367188 C 77.089844 13.511719 77.425781 13.699219 77.726562 13.933594 C 78.023438 14.167969 78.265625 14.457031 78.449219 14.796875 C 78.628906 15.136719 78.71875 15.539062 78.71875 16.007812 C 78.71875 16.621094 78.597656 17.144531 78.351562 17.574219 C 78.101562 17.992188 77.777344 18.332031 77.375 18.589844 C 76.984375 18.851562 76.542969 19.042969 76.050781 19.160156 C 75.554688 19.277344 75.0625 19.335938 74.570312 19.335938 C 73.777344 19.335938 72.996094 19.210938 72.230469 18.964844 C 71.476562 18.703125 70.847656 18.324219 70.339844 17.828125 L 72.132812 15.929688 C 72.417969 16.242188 72.769531 16.503906 73.183594 16.714844 C 73.601562 16.921875 74.042969 17.027344 74.511719 17.027344 C 74.769531 17.027344 75.023438 16.96875 75.269531 16.851562 C 75.53125 16.71875 75.660156 16.496094 75.660156 16.183594 C 75.660156 15.886719 75.503906 15.664062 75.191406 15.519531 C 74.878906 15.375 74.394531 15.226562 73.730469 15.070312 C 73.394531 14.992188 73.054688 14.886719 72.71875 14.757812 C 72.378906 14.625 72.074219 14.449219 71.800781 14.226562 C 71.542969 14.007812 71.328125 13.734375 71.15625 13.40625 C 70.988281 13.082031 70.90625 12.6875 70.90625 12.234375 C 70.90625 11.644531 71.027344 11.148438 71.273438 10.746094 C 71.523438 10.328125 71.839844 9.988281 72.230469 9.726562 C 72.621094 9.46875 73.046875 9.277344 73.515625 9.160156 C 73.996094 9.03125 74.472656 8.964844 74.9375 8.964844 C 75.667969 8.964844 76.375 9.082031 77.0625 9.316406 C 77.765625 9.539062 78.355469 9.878906 78.835938 10.335938 Z M 77.082031 12.15625 "/>
<path style=" stroke:none;fill-rule:nonzero;fill:rgb(0%,0%,0%);fill-opacity:1;" d="M 84.035156 11.683594 L 84.035156 15.402344 C 84.035156 15.859375 84.121094 16.203125 84.289062 16.4375 C 84.46875 16.660156 84.789062 16.773438 85.242188 16.773438 C 85.398438 16.773438 85.5625 16.757812 85.730469 16.734375 C 85.914062 16.707031 86.0625 16.667969 86.179688 16.613281 L 86.21875 18.964844 C 85.996094 19.042969 85.71875 19.105469 85.378906 19.160156 C 85.042969 19.222656 84.703125 19.257812 84.367188 19.257812 C 83.71875 19.257812 83.171875 19.179688 82.730469 19.023438 C 82.289062 18.851562 81.929688 18.617188 81.65625 18.316406 C 81.398438 18.003906 81.207031 17.640625 81.09375 17.222656 C 80.976562 16.792969 80.917969 16.316406 80.917969 15.792969 L 80.917969 11.683594 L 79.355469 11.683594 L 79.355469 9.277344 L 80.898438 9.277344 L 80.898438 6.714844 L 84.035156 6.714844 L 84.035156 9.277344 L 86.316406 9.277344 L 86.316406 11.683594 Z M 84.035156 11.683594 "/>
<path style=" stroke:none;fill-rule:nonzero;fill:rgb(0%,0%,0%);fill-opacity:1;" d="M 93.296875 20.488281 C 93.101562 20.996094 92.878906 21.449219 92.632812 21.839844 C 92.398438 22.242188 92.113281 22.582031 91.773438 22.855469 C 91.449219 23.144531 91.058594 23.359375 90.605469 23.503906 C 90.164062 23.644531 89.636719 23.71875 89.027344 23.71875 C 88.726562 23.71875 88.417969 23.699219 88.089844 23.660156 C 87.78125 23.621094 87.507812 23.566406 87.273438 23.503906 L 87.625 20.800781 C 87.78125 20.855469 87.949219 20.894531 88.128906 20.917969 C 88.324219 20.957031 88.5 20.976562 88.65625 20.976562 C 89.148438 20.976562 89.507812 20.859375 89.726562 20.625 C 89.949219 20.40625 90.136719 20.085938 90.292969 19.667969 L 90.605469 18.863281 L 86.550781 9.277344 L 90.097656 9.277344 L 92.261719 15.539062 L 92.320312 15.539062 L 94.25 9.277344 L 97.640625 9.277344 Z M 93.296875 20.488281 "/>
<path style=" stroke:none;fill-rule:evenodd;fill:rgb(14.117647%,49.411765%,96.470588%);fill-opacity:1;" d="M 12.566406 0 C 12.492188 0 12.417969 0.015625 12.351562 0.046875 L 0.324219 5.292969 C 0.128906 5.378906 0 5.574219 0 5.792969 L 0 24.457031 C 0 24.757812 0.242188 25 0.542969 25 L 12.339844 25 C 12.414062 25 12.488281 24.984375 12.554688 24.953125 L 24.582031 19.707031 C 24.777344 19.621094 24.90625 19.425781 24.90625 19.207031 L 24.90625 0.542969 C 24.90625 0.242188 24.664062 0 24.363281 0 Z M 7.164062 8.980469 L 3.375 8.980469 L 3.375 20.9375 L 7.164062 20.9375 Z M 10.289062 6.265625 L 14.078125 6.265625 L 14.078125 18.222656 L 10.289062 18.222656 Z M 21.242188 3.546875 L 17.453125 3.546875 L 17.453125 15.503906 L 21.242188 15.503906 Z M 21.242188 3.546875 "/>
</g>
</svg>
